<svg width="31" height="38" viewBox="0 0 31 38" fill="none" xmlns="http://www.w3.org/2000/svg">
<path d="M15.9253 0.351074L0.925293 7.01774V17.0177C0.925293 26.2677 7.32529 34.9177 15.9253 37.0177C24.5253 34.9177 30.9253 26.2677 30.9253 17.0177V7.01774L15.9253 0.351074ZM15.9253 6.85107C16.9142 6.85107 17.8809 7.14432 18.7032 7.69372C19.5254 8.24313 20.1663 9.02402 20.5447 9.93765C20.9232 10.8513 21.0222 11.8566 20.8292 12.8265C20.6363 13.7964 20.1601 14.6873 19.4609 15.3866C18.7616 16.0858 17.8707 16.5621 16.9008 16.755C15.9309 16.9479 14.9255 16.8489 14.0119 16.4704C13.0983 16.092 12.3174 15.4511 11.768 14.6289C11.2186 13.8067 10.9253 12.84 10.9253 11.8511C10.9253 10.525 11.4521 9.25322 12.3898 8.31554C13.3275 7.37786 14.5992 6.85107 15.9253 6.85107ZM15.9253 20.0177C19.2587 20.0177 25.9253 21.8344 25.9253 25.151C24.8307 26.8013 23.3447 28.1549 21.5999 29.0913C19.855 30.0277 17.9056 30.5178 15.9253 30.5178C13.9451 30.5178 11.9956 30.0277 10.2508 29.0913C8.5059 28.1549 7.01991 26.8013 5.92529 25.151C5.92529 21.8344 12.592 20.0177 15.9253 20.0177Z" fill="#35363A"/>
</svg>
