<svg width="92" height="93" viewBox="0 0 92 93" fill="none" xmlns="http://www.w3.org/2000/svg">
<path fill-rule="evenodd" clip-rule="evenodd" d="M0.738281 16.9693L38.3445 0.255371L60.1544 9.94866C58.2539 12.76 57.1441 16.1498 57.1441 19.7987C57.1441 29.5245 65.0284 37.4087 74.7542 37.4087C75.1563 37.4087 75.5554 37.3953 75.9508 37.3687V42.0401C75.9508 65.2306 59.9054 86.9169 38.3445 92.1818C16.7836 86.9169 0.738281 65.2306 0.738281 42.0401V16.9693ZM74.7542 3.18864C69.086 3.18864 64.0809 6.02782 61.0836 10.3616C59.2299 13.0417 58.1441 16.2934 58.1441 19.7987C58.1441 28.9722 65.5807 36.4087 74.7542 36.4087C75.1565 36.4087 75.5556 36.3944 75.9508 36.3663C84.5657 35.753 91.3642 28.5698 91.3642 19.7987C91.3642 10.6252 83.9277 3.18864 74.7542 3.18864ZM45.3089 18.664C43.2474 17.2866 40.8238 16.5514 38.3445 16.5514C35.0199 16.5514 31.8316 17.8721 29.4807 20.223C27.1298 22.5738 25.8091 25.7623 25.8091 29.087C25.8091 31.5662 26.5444 33.9898 27.9218 36.0512C29.2992 38.1125 31.257 39.7193 33.5474 40.668C35.8379 41.6169 38.3585 41.8651 40.7902 41.3815C43.2218 40.8979 45.4554 39.7037 47.2086 37.9508C48.9615 36.1976 50.1554 33.964 50.639 31.5324C51.1229 29.1008 50.8747 26.5804 49.9257 24.2897C48.9771 21.9992 47.3703 20.0414 45.3089 18.664ZM63.4154 62.431C63.4154 54.116 46.7016 49.5613 38.3445 49.5613C29.9876 49.5613 13.2737 54.116 13.2737 62.431C16.018 66.5684 19.7435 69.962 24.1181 72.3096C28.4924 74.6573 33.38 75.886 38.3445 75.886C43.3093 75.886 48.1966 74.6573 52.5712 72.3096C56.9456 69.962 60.6711 66.5684 63.4154 62.431ZM74.7553 6.68579C73.4572 6.68579 72.4049 7.7381 72.4049 9.03618V17.4474H63.9985C62.7005 17.4474 61.6482 18.4997 61.6482 19.7978C61.6482 21.0959 62.7005 22.1482 63.9985 22.1482H72.4049V30.5595C72.4049 31.8576 73.4572 32.9099 74.7553 32.9099C76.0534 32.9099 77.1057 31.8576 77.1057 30.5595V22.1482H85.5108C86.8088 22.1482 87.8612 21.0959 87.8612 19.7978C87.8612 18.4997 86.8088 17.4474 85.5108 17.4474H77.1057V9.03618C77.1057 7.73809 76.0534 6.68579 74.7553 6.68579Z" fill="#FAFAFA"/>
</svg>
