<svg width="58" height="59" viewBox="0 0 58 59" fill="none" xmlns="http://www.w3.org/2000/svg">
<path fill-rule="evenodd" clip-rule="evenodd" d="M0.564941 10.9629L24.2657 0.429199L37.668 6.38576C36.4527 8.20588 35.7442 10.3932 35.7442 12.746C35.7442 19.0797 40.8787 24.2142 47.2124 24.2142C47.4658 24.2142 47.7173 24.206 47.9665 24.1898V26.7634C47.9665 41.3789 37.8542 55.0464 24.2657 58.3645C10.6773 55.0464 0.564941 41.3789 0.564941 26.7634V10.9629ZM47.2124 2.27773C43.6401 2.27773 40.4857 4.06713 38.5966 6.7985C37.4285 8.48757 36.7442 10.5369 36.7442 12.746C36.7442 18.5274 41.431 23.2142 47.2124 23.2142C47.466 23.2142 47.7175 23.2052 47.9665 23.1875C53.396 22.801 57.6807 18.2739 57.6807 12.746C57.6807 6.96453 52.9939 2.27773 47.2124 2.27773ZM28.655 12.031C27.3557 11.1629 25.8282 10.6995 24.2657 10.6995C22.1704 10.6995 20.1611 11.5319 18.6794 13.0135C17.1978 14.4951 16.3654 16.5046 16.3654 18.5999C16.3654 20.1624 16.8289 21.6899 17.697 22.989C18.565 24.2881 19.7989 25.3008 21.2424 25.8986C22.686 26.4967 24.2746 26.6531 25.8071 26.3483C27.3396 26.0435 28.7472 25.291 29.8522 24.1862C30.9569 23.0812 31.7094 21.6736 32.0141 20.1411C32.3191 18.6086 32.1627 17.0202 31.5646 15.5765C30.9667 14.1329 29.9541 12.8991 28.655 12.031ZM40.0663 39.6145C40.0663 34.3741 29.5327 31.5036 24.2657 31.5036C18.9989 31.5036 8.46521 34.3741 8.46521 39.6145C10.1948 42.222 12.5427 44.3608 15.2997 45.8404C18.0566 47.3199 21.1369 48.0943 24.2657 48.0943C27.3947 48.0943 30.4749 47.3199 33.2319 45.8404C35.9888 44.3608 38.3367 42.222 40.0663 39.6145ZM47.2128 4.48194C46.3947 4.48194 45.7315 5.14514 45.7315 5.96324V11.2643H40.4335C39.6154 11.2643 38.9522 11.9275 38.9522 12.7456C38.9522 13.5637 39.6154 14.2269 40.4335 14.2269H45.7315V19.528C45.7315 20.3461 46.3947 21.0093 47.2128 21.0093C48.0309 21.0093 48.6941 20.3461 48.6941 19.528V14.2269H53.9913C54.8094 14.2269 55.4726 13.5637 55.4726 12.7456C55.4726 11.9275 54.8094 11.2643 53.9913 11.2643H48.6941V5.96324C48.6941 5.14514 48.0309 4.48194 47.2128 4.48194Z" fill="#35363A"/>
</svg>
