<svg width="37" height="37" viewBox="0 0 37 37" fill="none" xmlns="http://www.w3.org/2000/svg">
<path fill-rule="evenodd" clip-rule="evenodd" d="M0.196777 6.73014L15.1968 0.0634766L23.3387 3.68212C22.5519 4.8818 22.0942 6.31678 22.0942 7.85864C22.0942 12.0699 25.5082 15.4839 29.7195 15.4839C29.8798 15.4839 30.0389 15.4789 30.1968 15.4692V16.7301C30.1968 25.9801 23.7968 34.6301 15.1968 36.7301C6.59677 34.6301 0.196777 25.9801 0.196777 16.7301V6.73014ZM29.7195 1.2334C27.4586 1.2334 25.4622 2.36589 24.2666 4.09454C23.5273 5.16354 23.0942 6.46051 23.0942 7.85864C23.0942 11.5177 26.0605 14.4839 29.7195 14.4839C29.88 14.4839 30.0391 14.4782 30.1968 14.467C33.633 14.2224 36.3447 11.3572 36.3447 7.85864C36.3447 4.19962 33.3785 1.2334 29.7195 1.2334ZM17.9747 7.40612C17.1524 6.85672 16.1857 6.56347 15.1968 6.56347C13.8707 6.56347 12.599 7.09026 11.6613 8.02794C10.7236 8.96562 10.1968 10.2374 10.1968 11.5635C10.1968 12.5524 10.4901 13.5191 11.0395 14.3413C11.5889 15.1635 12.3698 15.8044 13.2834 16.1828C14.197 16.5613 15.2024 16.6603 16.1723 16.4674C17.1422 16.2745 18.0331 15.7982 18.7324 15.099C19.4316 14.3997 19.9078 13.5088 20.1007 12.5389C20.2937 11.569 20.1947 10.5637 19.8162 9.65005C19.4378 8.73642 18.7969 7.95553 17.9747 7.40612ZM25.1968 24.8634C25.1968 21.5468 18.5302 19.7301 15.1968 19.7301C11.8635 19.7301 5.19677 21.5468 5.19677 24.8634C6.29139 26.5137 7.77738 27.8673 9.52225 28.8037C11.2671 29.7401 13.2166 30.2302 15.1968 30.2302C17.1771 30.2302 19.1265 29.7401 20.8714 28.8037C22.6162 27.8673 24.1022 26.5137 25.1968 24.8634ZM29.7197 2.62842C29.202 2.62842 28.7822 3.04815 28.7822 3.56592V6.9209H25.4292C24.9114 6.9209 24.4917 7.34063 24.4917 7.8584C24.4917 8.37617 24.9114 8.7959 25.4292 8.7959H28.7822V12.1509C28.7822 12.6687 29.202 13.0884 29.7197 13.0884C30.2375 13.0884 30.6572 12.6687 30.6572 12.1509V8.7959H34.0098C34.5275 8.7959 34.9473 8.37617 34.9473 7.8584C34.9473 7.34063 34.5275 6.9209 34.0098 6.9209H30.6572V3.56592C30.6572 3.04815 30.2375 2.62842 29.7197 2.62842Z" fill="#35363A"/>
</svg>
