<svg width="21" height="25" viewBox="0 0 21 25" fill="none" xmlns="http://www.w3.org/2000/svg">
<path d="M11.953 23.9773C14.858 21.3447 20.0264 15.9663 20.0264 11.0307C20.0264 8.29984 18.9728 5.68079 17.0974 3.74976C15.2221 1.81873 12.6785 0.733887 10.0264 0.733887C7.3742 0.733887 4.83066 1.81873 2.9553 3.74976C1.07994 5.68079 0.0263672 8.29984 0.0263672 11.0307C0.0263672 15.9663 5.19303 21.3447 8.0997 23.9773C8.62989 24.4646 9.3157 24.7339 10.0264 24.7339C10.737 24.7339 11.4228 24.4646 11.953 23.9773ZM6.69303 11.0307C6.69303 10.1204 7.04422 9.24742 7.66934 8.60374C8.29447 7.96006 9.14231 7.59845 10.0264 7.59845C10.9104 7.59845 11.7583 7.96006 12.3834 8.60374C13.0085 9.24742 13.3597 10.1204 13.3597 11.0307C13.3597 11.941 13.0085 12.814 12.3834 13.4577C11.7583 14.1014 10.9104 14.463 10.0264 14.463C9.14231 14.463 8.29447 14.1014 7.66934 13.4577C7.04422 12.814 6.69303 11.941 6.69303 11.0307Z" fill="#35363A"/>
</svg>
