<svg width="17" height="20" viewBox="0 0 17 20" fill="none" xmlns="http://www.w3.org/2000/svg">
<path d="M2.06668 17.7778C2.06668 19 3.06668 20 4.2889 20H13.1778C14.4 20 15.4 19 15.4 17.7778V6.66667C15.4 5.44444 14.4 4.44444 13.1778 4.44444H4.2889C3.06668 4.44444 2.06668 5.44444 2.06668 6.66667V17.7778ZM15.4 1.11111H12.6222L11.8333 0.322222C11.6333 0.122222 11.3445 0 11.0556 0H6.41112C6.12223 0 5.83334 0.122222 5.63334 0.322222L4.84446 1.11111H2.06668C1.45557 1.11111 0.955566 1.61111 0.955566 2.22222C0.955566 2.83333 1.45557 3.33333 2.06668 3.33333H15.4C16.0111 3.33333 16.5111 2.83333 16.5111 2.22222C16.5111 1.61111 16.0111 1.11111 15.4 1.11111Z" fill="#35363A"/>
</svg>
