<svg width="26" height="23" viewBox="0 0 26 23" fill="none" xmlns="http://www.w3.org/2000/svg">
<path d="M14.7356 0.306641C20.8421 0.306641 25.7891 5.27572 25.7891 11.349C25.7891 17.4224 20.8421 22.3914 14.7356 22.3914C10.8597 22.3914 7.46972 20.3817 5.49313 17.3451L7.23783 15.9648C8.7948 18.4935 11.5664 20.183 14.7467 20.183C17.0896 20.183 19.3365 19.2523 20.9932 17.5956C22.6499 15.9389 23.5806 13.6919 23.5806 11.349C23.5806 9.00614 22.6499 6.7592 20.9932 5.10252C19.3365 3.44584 17.0896 2.51512 14.7467 2.51512C10.2414 2.51512 6.53111 5.8941 5.99003 10.2448H9.03774L4.90788 14.3636L0.789062 10.2448H3.75947C4.31159 4.66839 9.01565 0.306641 14.7356 0.306641ZM18.0042 9.40558C18.5563 9.41662 19.009 9.85832 19.009 10.4215V15.512C19.009 16.0642 18.5563 16.5279 17.9931 16.5279H11.8867C11.3235 16.5279 10.8708 16.0642 10.8708 15.512V10.4215C10.8708 9.85832 11.3235 9.41662 11.8756 9.40558V8.2903C11.8756 6.60081 13.2559 5.23155 14.9344 5.23155C16.6239 5.23155 18.0042 6.60081 18.0042 8.2903V9.40558ZM14.9344 6.77749C14.1062 6.77749 13.4216 7.45107 13.4216 8.2903V9.40558H16.4582V8.2903C16.4582 7.45107 15.7736 6.77749 14.9344 6.77749Z" fill="#35363A"/>
</svg>
