<svg width="21" height="25" viewBox="0 0 21 25" fill="none" xmlns="http://www.w3.org/2000/svg">
<path d="M12.1278 23.9773C15.0328 21.3447 20.2012 15.9663 20.2012 11.0307C20.2012 8.29984 19.1476 5.68079 17.2722 3.74976C15.3969 1.81873 12.8533 0.733887 10.2012 0.733887C7.54901 0.733887 5.00547 1.81873 3.1301 3.74976C1.25474 5.68079 0.201172 8.29984 0.201172 11.0307C0.201172 15.9663 5.36784 21.3447 8.27451 23.9773C8.80469 24.4646 9.4905 24.7339 10.2012 24.7339C10.9118 24.7339 11.5976 24.4646 12.1278 23.9773ZM6.86784 11.0307C6.86784 10.1204 7.21903 9.24742 7.84415 8.60374C8.46927 7.96006 9.31712 7.59845 10.2012 7.59845C11.0852 7.59845 11.9331 7.96006 12.5582 8.60374C13.1833 9.24742 13.5345 10.1204 13.5345 11.0307C13.5345 11.941 13.1833 12.814 12.5582 13.4577C11.9331 14.1014 11.0852 14.463 10.2012 14.463C9.31712 14.463 8.46927 14.1014 7.84415 13.4577C7.21903 12.814 6.86784 11.941 6.86784 11.0307Z" fill="#E14761"/>
</svg>
