<svg width="18" height="18" viewBox="0 0 18 18" fill="none" xmlns="http://www.w3.org/2000/svg">
<path d="M1.97871 17.8511C1.44808 17.8511 0.993663 17.662 0.615466 17.2838C0.237269 16.9056 0.0484917 16.4515 0.0491349 15.9215V2.41444C0.0491349 1.88381 0.238234 1.42939 0.616431 1.0512C0.994628 0.672999 1.44872 0.484222 1.97871 0.484865H12.7602C13.0175 0.484865 13.2629 0.533104 13.4964 0.629583C13.7298 0.726062 13.9347 0.862741 14.1109 1.03962L16.8606 3.78927C17.0375 3.96615 17.1741 4.17133 17.2706 4.4048C17.3671 4.63828 17.4153 4.88334 17.4153 5.13997V15.9215C17.4153 16.4521 17.2262 16.9065 16.848 17.2847C16.4698 17.6629 16.0158 17.8517 15.4858 17.8511H1.97871ZM15.4858 5.16409L12.7361 2.41444H1.97871V15.9215H15.4858V5.16409ZM8.73224 14.9567C9.53623 14.9567 10.2196 14.6753 10.7824 14.1125C11.3452 13.5497 11.6266 12.8663 11.6266 12.0623C11.6266 11.2583 11.3452 10.575 10.7824 10.0122C10.2196 9.44937 9.53623 9.16797 8.73224 9.16797C7.92825 9.16797 7.24486 9.44937 6.68206 10.0122C6.11927 10.575 5.83787 11.2583 5.83787 12.0623C5.83787 12.8663 6.11927 13.5497 6.68206 14.1125C7.24486 14.6753 7.92825 14.9567 8.73224 14.9567ZM3.90829 7.23839H10.6618C10.9352 7.23839 11.1645 7.14577 11.3497 6.96053C11.535 6.77529 11.6272 6.54631 11.6266 6.2736V4.34402C11.6266 4.07067 11.534 3.84137 11.3487 3.65613C11.1635 3.47089 10.9345 3.37859 10.6618 3.37923H3.90829C3.63494 3.37923 3.40564 3.47185 3.2204 3.65709C3.03516 3.84233 2.94286 4.07131 2.9435 4.34402V6.2736C2.9435 6.54696 3.03612 6.77626 3.22136 6.9615C3.4066 7.14674 3.63558 7.23903 3.90829 7.23839ZM1.97871 5.16409V15.9215V2.41444V5.16409Z" fill="#35363A"/>
</svg>
