<svg width="26" height="27" viewBox="0 0 26 27" fill="none" xmlns="http://www.w3.org/2000/svg">
<path d="M12.8643 25.8818C12.5408 25.8818 12.2695 25.7726 12.0503 25.5542C11.8312 25.3358 11.7219 25.0645 11.7227 24.7403V23.5987C9.34447 23.3324 7.30375 22.348 5.60056 20.6455C3.89736 18.9431 2.91296 16.9024 2.64736 14.5234H1.50581C1.18237 14.5234 0.911442 14.4138 0.693025 14.1946C0.474608 13.9754 0.365019 13.7045 0.364258 13.3818C0.364258 13.0584 0.473847 12.7871 0.693025 12.5679C0.912203 12.3487 1.18313 12.2395 1.50581 12.2403H2.64736C2.91372 9.86205 3.8985 7.82133 5.6017 6.11814C7.3049 4.41494 9.34523 3.43054 11.7227 3.16494V2.02339C11.7227 1.69995 11.8323 1.42902 12.0515 1.2106C12.2706 0.992186 12.5416 0.882597 12.8643 0.881836C13.1877 0.881836 13.459 0.991425 13.6782 1.2106C13.8974 1.42978 14.0066 1.70071 14.0058 2.02339V3.16494C16.384 3.4313 18.4248 4.41608 20.128 6.11928C21.8312 7.82247 22.8155 9.86281 23.0812 12.2403H24.2227C24.5461 12.2403 24.8175 12.3499 25.0366 12.569C25.2558 12.7882 25.365 13.0592 25.3643 13.3818C25.3643 13.7053 25.255 13.9766 25.0366 14.1958C24.8182 14.4149 24.5469 14.5241 24.2227 14.5234H23.0812C22.8148 16.9016 21.8304 18.9423 20.128 20.6455C18.4255 22.3487 16.3848 23.3331 14.0058 23.5987V24.7403C14.0058 25.0637 13.8962 25.335 13.677 25.5542C13.4579 25.7734 13.1869 25.8826 12.8643 25.8818ZM12.8643 21.3727C15.0713 21.3727 16.9548 20.5926 18.5149 19.0325C20.0751 17.4724 20.8551 15.5888 20.8551 13.3818C20.8551 11.1748 20.0751 9.29127 18.5149 7.73115C16.9548 6.17103 15.0713 5.39097 12.8643 5.39097C10.6573 5.39097 8.77369 6.17103 7.21357 7.73115C5.65345 9.29127 4.87339 11.1748 4.87339 13.3818C4.87339 15.5888 5.65345 17.4724 7.21357 19.0325C8.77369 20.5926 10.6573 21.3727 12.8643 21.3727ZM12.8643 17.948C11.6085 17.948 10.5336 17.5009 9.63937 16.6067C8.74515 15.7125 8.29805 14.6375 8.29805 13.3818C8.29805 12.1261 8.74515 11.0512 9.63937 10.1569C10.5336 9.26273 11.6085 8.81562 12.8643 8.81562C14.12 8.81562 15.1949 9.26273 16.0891 10.1569C16.9834 11.0512 17.4305 12.1261 17.4305 13.3818C17.4305 14.6375 16.9834 15.7125 16.0891 16.6067C15.1949 17.5009 14.12 17.948 12.8643 17.948Z" fill="#E14761" fill-opacity="0.5" stroke="#E14761" stroke-width="0.3"/>
</svg>
